<?xml version="1.0" encoding="UTF-8" standalone="no"?>
<!DOCTYPE svg PUBLIC "-//W3C//DTD SVG 1.1//EN"
 "http://www.w3.org/Graphics/SVG/1.1/DTD/svg11.dtd">
<!-- Generated by graphviz version 2.40.1 (20161225.0304)
 -->
<!-- Title: G Pages: 1 -->
<svg width="1179pt" height="1507pt"
 viewBox="0.00 0.00 1179.00 1507.09" xmlns="http://www.w3.org/2000/svg" xmlns:xlink="http://www.w3.org/1999/xlink">
<g id="graph0" class="graph" transform="scale(1 1) rotate(0) translate(4 1503.0874)">
<title>G</title>
<polygon fill="#ffffff" stroke="transparent" points="-4,4 -4,-1503.0874 1175,-1503.0874 1175,4 -4,4"/>
<g id="clust1" class="cluster">
<title>cluster_start</title>
<polygon fill="none" stroke="#000000" points="116,-1176.3473 116,-1491.0874 576,-1491.0874 576,-1176.3473 116,-1176.3473"/>
<text text-anchor="middle" x="346" y="-1475.8874" font-family="Times,serif" font-size="14.00" fill="#000000">start</text>
</g>
<g id="clust2" class="cluster">
<title>cluster_onboarding</title>
<polygon fill="none" stroke="#000000" points="8,-300.4802 8,-1143.3473 316,-1143.3473 316,-300.4802 8,-300.4802"/>
<text text-anchor="middle" x="162" y="-1128.1473" font-family="Times,serif" font-size="14.00" fill="#000000">onboarding context</text>
</g>
<g id="clust4" class="cluster">
<title>cluster_sentence</title>
<polygon fill="none" stroke="#000000" points="371,-8 371,-1143.3473 757,-1143.3473 757,-8 371,-8"/>
<text text-anchor="middle" x="564" y="-1128.1473" font-family="Times,serif" font-size="14.00" fill="#000000">sentences context</text>
</g>
<g id="clust10" class="cluster">
<title>cluster_words</title>
<polygon fill="none" stroke="#000000" points="765,-209.7401 765,-989.1808 1151,-989.1808 1151,-209.7401 765,-209.7401"/>
<text text-anchor="middle" x="958" y="-973.9808" font-family="Times,serif" font-size="14.00" fill="#000000">words context</text>
</g>
<!-- alexa_welcome -->
<g id="node1" class="node">
<title>alexa_welcome</title>
<ellipse fill="#add8e6" stroke="#add8e6" cx="346" cy="-1433.2174" rx="222.0631" ry="26.7407"/>
<text text-anchor="middle" x="346" y="-1437.0174" font-family="Times,serif" font-size="14.00" fill="#000000">Welcome to the vocabulary trainer!</text>
<text text-anchor="middle" x="346" y="-1422.0174" font-family="Times,serif" font-size="14.00" fill="#000000">Which language do you want to practice?</text>
</g>
<!-- user_choose_lang -->
<g id="node2" class="node">
<title>user_choose_lang</title>
<ellipse fill="#ffff00" stroke="#ffff00" cx="346" cy="-1313.3473" rx="48.1917" ry="18"/>
<text text-anchor="middle" x="346" y="-1309.6473" font-family="Times,serif" font-size="14.00" fill="#000000">German</text>
</g>
<!-- alexa_welcome&#45;&gt;user_choose_lang -->
<g id="edge1" class="edge">
<title>alexa_welcome&#45;&gt;user_choose_lang</title>
<path fill="none" stroke="#000000" d="M346,-1406.3162C346,-1387.0966 346,-1361.2862 346,-1341.7375"/>
<polygon fill="#000000" stroke="#000000" points="349.5001,-1341.6029 346,-1331.6029 342.5001,-1341.603 349.5001,-1341.6029"/>
</g>
<!-- sys_choose_lang -->
<g id="node3" class="node">
<title>sys_choose_lang</title>
<ellipse fill="none" stroke="#000000" cx="346" cy="-1202.3473" rx="136.4758" ry="18"/>
<text text-anchor="middle" x="346" y="-1198.6473" font-family="Times,serif" font-size="14.00" fill="#000000">Already practiced by user?</text>
</g>
<!-- user_choose_lang&#45;&gt;sys_choose_lang -->
<g id="edge2" class="edge">
<title>user_choose_lang&#45;&gt;sys_choose_lang</title>
<path fill="none" stroke="#000000" d="M346,-1295.0179C346,-1277.5846 346,-1251.0955 346,-1230.8962"/>
<polygon fill="#000000" stroke="#000000" points="349.5001,-1230.7039 346,-1220.704 342.5001,-1230.704 349.5001,-1230.7039"/>
</g>
<!-- alexa_freq_intro -->
<g id="node6" class="node">
<title>alexa_freq_intro</title>
<ellipse fill="#add8e6" stroke="#add8e6" cx="162" cy="-1064.2641" rx="146.2423" ry="48.1667"/>
<text text-anchor="middle" x="162" y="-1083.0641" font-family="Times,serif" font-size="14.00" fill="#000000">Tell me for each</text>
<text text-anchor="middle" x="162" y="-1068.0641" font-family="Times,serif" font-size="14.00" fill="#000000">of the following words</text>
<text text-anchor="middle" x="162" y="-1053.0641" font-family="Times,serif" font-size="14.00" fill="#000000">whether you understand it</text>
<text text-anchor="middle" x="162" y="-1038.0641" font-family="Times,serif" font-size="14.00" fill="#000000">or not</text>
</g>
<!-- sys_choose_lang&#45;&gt;alexa_freq_intro -->
<g id="edge3" class="edge">
<title>sys_choose_lang&#45;&gt;alexa_freq_intro</title>
<path fill="none" stroke="#000000" d="M322.3219,-1184.578C298.789,-1166.9178 261.593,-1139.0038 228.9509,-1114.5075"/>
<polygon fill="#000000" stroke="#000000" points="230.8604,-1111.5645 220.7612,-1108.3616 226.6587,-1117.1633 230.8604,-1111.5645"/>
<text text-anchor="middle" x="320.5" y="-1155.1473" font-family="Times,serif" font-size="14.00" fill="#000000">FALSE</text>
</g>
<!-- alexa_start_sentences -->
<g id="node10" class="node">
<title>alexa_start_sentences</title>
<ellipse fill="#add8e6" stroke="#add8e6" cx="547" cy="-1064.2641" rx="159.6125" ry="48.1667"/>
<text text-anchor="middle" x="547" y="-1083.0641" font-family="Times,serif" font-size="14.00" fill="#000000">I think you know</text>
<text text-anchor="middle" x="547" y="-1068.0641" font-family="Times,serif" font-size="14.00" fill="#000000">around %d words in German.</text>
<text text-anchor="middle" x="547" y="-1053.0641" font-family="Times,serif" font-size="14.00" fill="#000000">That can be improved.</text>
<text text-anchor="middle" x="547" y="-1038.0641" font-family="Times,serif" font-size="14.00" fill="#000000">Let&#39;s start practicing!</text>
</g>
<!-- sys_choose_lang&#45;&gt;alexa_start_sentences -->
<g id="edge11" class="edge">
<title>sys_choose_lang&#45;&gt;alexa_start_sentences</title>
<path fill="none" stroke="#000000" d="M371.8657,-1184.578C397.6818,-1166.8429 438.5501,-1138.7671 474.3165,-1114.1963"/>
<polygon fill="#000000" stroke="#000000" points="476.5491,-1116.9089 482.8097,-1108.3616 472.5854,-1111.1392 476.5491,-1116.9089"/>
<text text-anchor="middle" x="437.5" y="-1155.1473" font-family="Times,serif" font-size="14.00" fill="#000000">TRUE</text>
</g>
<!-- sys_freq_word -->
<g id="node4" class="node">
<title>sys_freq_word</title>
<ellipse fill="none" stroke="#000000" cx="162" cy="-840.5706" rx="128.8872" ry="26.7407"/>
<text text-anchor="middle" x="162" y="-844.3706" font-family="Times,serif" font-size="14.00" fill="#000000">Get a word</text>
<text text-anchor="middle" x="162" y="-829.3706" font-family="Times,serif" font-size="14.00" fill="#000000">from the frequency list</text>
</g>
<!-- alexa_freq_word -->
<g id="node7" class="node">
<title>alexa_freq_word</title>
<ellipse fill="#add8e6" stroke="#add8e6" cx="182" cy="-653.9605" rx="94.4839" ry="18"/>
<text text-anchor="middle" x="182" y="-650.2605" font-family="Times,serif" font-size="14.00" fill="#000000">(Word in German)</text>
</g>
<!-- sys_freq_word&#45;&gt;alexa_freq_word -->
<g id="edge5" class="edge">
<title>sys_freq_word&#45;&gt;alexa_freq_word</title>
<path fill="none" stroke="#000000" d="M164.9082,-813.4359C168.6587,-778.4413 175.1514,-717.8615 178.9634,-682.2939"/>
<polygon fill="#000000" stroke="#000000" points="182.4687,-682.4307 180.0543,-672.1147 175.5085,-681.6847 182.4687,-682.4307"/>
</g>
<!-- sys_know_word -->
<g id="node5" class="node">
<title>sys_know_word</title>
<ellipse fill="none" stroke="#000000" cx="140" cy="-335.3503" rx="123.9879" ry="26.7407"/>
<text text-anchor="middle" x="140" y="-339.1503" font-family="Times,serif" font-size="14.00" fill="#000000">Do we need</text>
<text text-anchor="middle" x="140" y="-324.1503" font-family="Times,serif" font-size="14.00" fill="#000000">to check more words?</text>
</g>
<!-- sys_know_word&#45;&gt;sys_freq_word -->
<g id="edge10" class="edge">
<title>sys_know_word&#45;&gt;sys_freq_word</title>
<path fill="none" stroke="#000000" d="M101.1762,-361.0027C84.6006,-375.2435 69,-394.6436 69,-417.2203 69,-749.8305 69,-749.8305 69,-749.8305 69,-774.5143 85.9913,-794.675 105.4485,-809.6695"/>
<polygon fill="#000000" stroke="#000000" points="103.442,-812.5378 113.5932,-815.5713 107.5494,-806.8694 103.442,-812.5378"/>
<text text-anchor="middle" x="90.5" y="-568.3904" font-family="Times,serif" font-size="14.00" fill="#000000">TRUE</text>
</g>
<!-- sys_know_word&#45;&gt;alexa_start_sentences -->
<g id="edge12" class="edge">
<title>sys_know_word&#45;&gt;alexa_start_sentences</title>
<path fill="none" stroke="#000000" d="M162.3851,-361.8835C183.8736,-388.4125 216.0699,-431.0756 237,-472.2203 321.0304,-637.4086 276.5452,-707.3955 370,-867.4407 401.7185,-921.7599 450.1182,-974.2595 488.294,-1011.357"/>
<polygon fill="#000000" stroke="#000000" points="486.1528,-1014.154 495.7848,-1018.5671 491.0072,-1009.1106 486.1528,-1014.154"/>
<text text-anchor="middle" x="323.5" y="-650.2605" font-family="Times,serif" font-size="14.00" fill="#000000">FALSE</text>
</g>
<!-- alexa_freq_intro&#45;&gt;sys_freq_word -->
<g id="edge4" class="edge">
<title>alexa_freq_intro&#45;&gt;sys_freq_word</title>
<path fill="none" stroke="#000000" d="M162,-1016.0013C162,-974.5593 162,-915.6777 162,-877.7964"/>
<polygon fill="#000000" stroke="#000000" points="165.5001,-877.7008 162,-867.7008 158.5001,-877.7008 165.5001,-877.7008"/>
</g>
<!-- user_freq_yes -->
<g id="node8" class="node">
<title>user_freq_yes</title>
<ellipse fill="#ffff00" stroke="#ffff00" cx="129" cy="-490.2203" rx="27" ry="18"/>
<text text-anchor="middle" x="129" y="-486.5203" font-family="Times,serif" font-size="14.00" fill="#000000">yes</text>
</g>
<!-- alexa_freq_word&#45;&gt;user_freq_yes -->
<g id="edge6" class="edge">
<title>alexa_freq_word&#45;&gt;user_freq_yes</title>
<path fill="none" stroke="#000000" d="M176.1256,-635.8118C166.8441,-607.1374 148.7286,-551.1705 137.8616,-517.5978"/>
<polygon fill="#000000" stroke="#000000" points="141.1491,-516.3887 134.7396,-507.9526 134.4893,-518.5445 141.1491,-516.3887"/>
</g>
<!-- user_freq_no -->
<g id="node9" class="node">
<title>user_freq_no</title>
<ellipse fill="#ffff00" stroke="#ffff00" cx="201" cy="-490.2203" rx="27" ry="18"/>
<text text-anchor="middle" x="201" y="-486.5203" font-family="Times,serif" font-size="14.00" fill="#000000">no</text>
</g>
<!-- alexa_freq_word&#45;&gt;user_freq_no -->
<g id="edge7" class="edge">
<title>alexa_freq_word&#45;&gt;user_freq_no</title>
<path fill="none" stroke="#000000" d="M184.1059,-635.8118C187.4015,-607.4112 193.8037,-552.2371 197.7109,-518.5658"/>
<polygon fill="#000000" stroke="#000000" points="201.2086,-518.7871 198.8846,-508.4503 194.2552,-517.9802 201.2086,-518.7871"/>
</g>
<!-- user_freq_yes&#45;&gt;sys_know_word -->
<g id="edge8" class="edge">
<title>user_freq_yes&#45;&gt;sys_know_word</title>
<path fill="none" stroke="#000000" d="M130.2834,-472.1517C132.0095,-447.8497 135.1203,-404.0515 137.3577,-372.5519"/>
<polygon fill="#000000" stroke="#000000" points="140.8623,-372.6096 138.0797,-362.3868 133.8799,-372.1136 140.8623,-372.6096"/>
</g>
<!-- user_freq_no&#45;&gt;sys_know_word -->
<g id="edge9" class="edge">
<title>user_freq_no&#45;&gt;sys_know_word</title>
<path fill="none" stroke="#000000" d="M194.1211,-472.7558C184.5204,-448.3812 166.8742,-403.5798 154.3432,-371.7655"/>
<polygon fill="#000000" stroke="#000000" points="157.5543,-370.3676 150.633,-362.346 151.0413,-372.9329 157.5543,-370.3676"/>
</g>
<!-- sys_new_sentence -->
<g id="node11" class="node">
<title>sys_new_sentence</title>
<ellipse fill="none" stroke="#000000" cx="556" cy="-840.5706" rx="176.5537" ry="26.7407"/>
<text text-anchor="middle" x="556" y="-844.3706" font-family="Times,serif" font-size="14.00" fill="#000000">Get a new random sentence pair</text>
<text text-anchor="middle" x="556" y="-829.3706" font-family="Times,serif" font-size="14.00" fill="#000000">with X new words</text>
</g>
<!-- alexa_start_sentences&#45;&gt;sys_new_sentence -->
<g id="edge13" class="edge">
<title>alexa_start_sentences&#45;&gt;sys_new_sentence</title>
<path fill="none" stroke="#000000" d="M548.9418,-1016.0013C550.6091,-974.5593 552.9782,-915.6777 554.5023,-877.7964"/>
<polygon fill="#000000" stroke="#000000" points="558.0035,-877.8335 554.9085,-867.7008 551.0092,-877.552 558.0035,-877.8335"/>
</g>
<!-- alexa_sentence_dst -->
<g id="node12" class="node">
<title>alexa_sentence_dst</title>
<ellipse fill="#add8e6" stroke="#add8e6" cx="637" cy="-653.9605" rx="112.3801" ry="18"/>
<text text-anchor="middle" x="637" y="-650.2605" font-family="Times,serif" font-size="14.00" fill="#000000">(Sentence in German)</text>
</g>
<!-- sys_new_sentence&#45;&gt;alexa_sentence_dst -->
<g id="edge14" class="edge">
<title>sys_new_sentence&#45;&gt;alexa_sentence_dst</title>
<path fill="none" stroke="#000000" d="M567.7781,-813.4359C583.0988,-778.1396 609.7173,-716.8151 625.0984,-681.3796"/>
<polygon fill="#000000" stroke="#000000" points="628.3488,-682.6814 629.12,-672.1147 621.9276,-679.8942 628.3488,-682.6814"/>
</g>
<!-- user_next -->
<g id="node14" class="node">
<title>user_next</title>
<ellipse fill="#ffff00" stroke="#ffff00" cx="430" cy="-162.7401" rx="31.3957" ry="18"/>
<text text-anchor="middle" x="430" y="-159.0401" font-family="Times,serif" font-size="14.00" fill="#000000">next</text>
</g>
<!-- alexa_sentence_dst&#45;&gt;user_next -->
<g id="edge21" class="edge">
<title>alexa_sentence_dst&#45;&gt;user_next</title>
<path fill="none" stroke="#000000" d="M566.9765,-639.7582C520.5712,-629.2428 464.8838,-614.1605 446,-598.9605 435.1727,-590.2453 430,-585.9895 430,-572.0904 430,-572.0904 430,-572.0904 430,-244.6102 430,-226.8255 430,-206.8676 430,-191.1096"/>
<polygon fill="#000000" stroke="#000000" points="433.5001,-190.9495 430,-180.9496 426.5001,-190.9496 433.5001,-190.9495"/>
</g>
<!-- user_translate -->
<g id="node15" class="node">
<title>user_translate</title>
<ellipse fill="#ffff00" stroke="#ffff00" cx="579" cy="-490.2203" rx="52.7911" ry="18"/>
<text text-anchor="middle" x="579" y="-486.5203" font-family="Times,serif" font-size="14.00" fill="#000000">translate</text>
</g>
<!-- alexa_sentence_dst&#45;&gt;user_translate -->
<g id="edge15" class="edge">
<title>alexa_sentence_dst&#45;&gt;user_translate</title>
<path fill="none" stroke="#000000" d="M630.5714,-635.8118C620.4678,-607.2883 600.7982,-551.7589 588.8861,-518.1297"/>
<polygon fill="#000000" stroke="#000000" points="592.0955,-516.7078 585.4574,-508.4503 585.4973,-519.0451 592.0955,-516.7078"/>
</g>
<!-- user_repeat_sentence -->
<g id="node16" class="node">
<title>user_repeat_sentence</title>
<ellipse fill="#ffff00" stroke="#ffff00" cx="602" cy="-162.7401" rx="40.8928" ry="18"/>
<text text-anchor="middle" x="602" y="-159.0401" font-family="Times,serif" font-size="14.00" fill="#000000">repeat</text>
</g>
<!-- alexa_sentence_dst&#45;&gt;user_repeat_sentence -->
<g id="edge18" class="edge">
<title>alexa_sentence_dst&#45;&gt;user_repeat_sentence</title>
<path fill="none" stroke="#000000" d="M658.4802,-636.2176C676.5352,-621.7002 699,-599.1825 699,-572.0904 699,-572.0904 699,-572.0904 699,-244.6102 699,-226.8564 661.2843,-201.1527 632.7577,-183.3003"/>
<polygon fill="#000000" stroke="#000000" points="634.5954,-180.3216 624.2515,-178.0294 630.9083,-186.2718 634.5954,-180.3216"/>
</g>
<!-- user_explain -->
<g id="node17" class="node">
<title>user_explain</title>
<ellipse fill="#ffff00" stroke="#ffff00" cx="705" cy="-162.7401" rx="44.393" ry="18"/>
<text text-anchor="middle" x="705" y="-159.0401" font-family="Times,serif" font-size="14.00" fill="#000000">explain</text>
</g>
<!-- alexa_sentence_dst&#45;&gt;user_explain -->
<g id="edge28" class="edge">
<title>alexa_sentence_dst&#45;&gt;user_explain</title>
<path fill="none" stroke="#000000" d="M676.3847,-636.9457C700.9785,-623.3831 728,-601.7361 728,-572.0904 728,-572.0904 728,-572.0904 728,-244.6102 728,-225.9594 722.3992,-205.7794 716.7253,-190.1212"/>
<polygon fill="#000000" stroke="#000000" points="719.8996,-188.6241 713.0443,-180.546 713.3657,-191.136 719.8996,-188.6241"/>
</g>
<!-- user_easy -->
<g id="node18" class="node">
<title>user_easy</title>
<ellipse fill="#ffff00" stroke="#ffff00" cx="511" cy="-162.7401" rx="31.6951" ry="18"/>
<text text-anchor="middle" x="511" y="-159.0401" font-family="Times,serif" font-size="14.00" fill="#000000">easy</text>
</g>
<!-- alexa_sentence_dst&#45;&gt;user_easy -->
<g id="edge24" class="edge">
<title>alexa_sentence_dst&#45;&gt;user_easy</title>
<path fill="none" stroke="#000000" d="M573.951,-638.9683C519.6629,-624.1664 450,-599.7782 450,-572.0904 450,-572.0904 450,-572.0904 450,-244.6102 450,-220.3905 467.3784,-198.7013 483.5837,-183.7414"/>
<polygon fill="#000000" stroke="#000000" points="486.1275,-186.1669 491.3634,-176.9563 481.5265,-180.8914 486.1275,-186.1669"/>
</g>
<!-- alexa_sentence_src -->
<g id="node13" class="node">
<title>alexa_sentence_src</title>
<ellipse fill="#add8e6" stroke="#add8e6" cx="579" cy="-335.3503" rx="110.4804" ry="18"/>
<text text-anchor="middle" x="579" y="-331.6503" font-family="Times,serif" font-size="14.00" fill="#000000">(Sentence in English)</text>
</g>
<!-- alexa_sentence_src&#45;&gt;user_next -->
<g id="edge22" class="edge">
<title>alexa_sentence_src&#45;&gt;user_next</title>
<path fill="none" stroke="#000000" d="M563.336,-317.2042C536.2899,-285.8724 480.84,-221.6361 450.6676,-186.6827"/>
<polygon fill="#000000" stroke="#000000" points="453.1099,-184.1556 443.926,-178.8728 447.811,-188.7297 453.1099,-184.1556"/>
</g>
<!-- alexa_sentence_src&#45;&gt;user_translate -->
<g id="edge16" class="edge">
<title>alexa_sentence_src&#45;&gt;user_translate</title>
<path fill="none" stroke="#000000" d="M583.5604,-353.7839C586.1827,-380.5472 586.4496,-430.3942 584.3612,-461.8574"/>
<polygon fill="#000000" stroke="#000000" points="580.8462,-461.9009 583.5243,-472.1517 587.8232,-462.4682 580.8462,-461.9009"/>
</g>
<!-- alexa_sentence_src&#45;&gt;user_repeat_sentence -->
<g id="edge19" class="edge">
<title>alexa_sentence_src&#45;&gt;user_repeat_sentence</title>
<path fill="none" stroke="#000000" d="M581.4179,-317.2042C585.4211,-287.1609 593.4556,-226.864 598.2158,-191.1394"/>
<polygon fill="#000000" stroke="#000000" points="601.7284,-191.2768 599.58,-180.9021 594.7897,-190.3521 601.7284,-191.2768"/>
</g>
<!-- alexa_sentence_src&#45;&gt;user_explain -->
<g id="edge29" class="edge">
<title>alexa_sentence_src&#45;&gt;user_explain</title>
<path fill="none" stroke="#000000" d="M592.2461,-317.2042C614.7296,-286.4036 660.4248,-223.8047 686.2068,-188.4854"/>
<polygon fill="#000000" stroke="#000000" points="689.2372,-190.2702 692.3062,-180.1296 683.5833,-186.143 689.2372,-190.2702"/>
</g>
<!-- alexa_sentence_src&#45;&gt;user_easy -->
<g id="edge25" class="edge">
<title>alexa_sentence_src&#45;&gt;user_easy</title>
<path fill="none" stroke="#000000" d="M571.8513,-317.2042C559.9027,-286.8739 535.8067,-225.709 521.7872,-190.1222"/>
<polygon fill="#000000" stroke="#000000" points="524.8733,-188.4067 517.9514,-180.3856 518.3604,-190.9725 524.8733,-188.4067"/>
</g>
<!-- user_next&#45;&gt;sys_new_sentence -->
<g id="edge23" class="edge">
<title>user_next&#45;&gt;sys_new_sentence</title>
<path fill="none" stroke="#000000" d="M423.1171,-180.3249C417.3318,-196.7022 410,-221.9313 410,-244.6102 410,-749.8305 410,-749.8305 410,-749.8305 410,-779.0565 431.3649,-799.2009 457.749,-812.9349"/>
<polygon fill="#000000" stroke="#000000" points="456.3399,-816.1413 466.8655,-817.3507 459.3914,-809.8414 456.3399,-816.1413"/>
</g>
<!-- user_translate&#45;&gt;alexa_sentence_src -->
<g id="edge17" class="edge">
<title>user_translate&#45;&gt;alexa_sentence_src</title>
<path fill="none" stroke="#000000" d="M574.4757,-472.1517C571.8319,-445.6 571.5434,-395.7753 573.6103,-364.1451"/>
<polygon fill="#000000" stroke="#000000" points="577.1305,-364.0313 574.4396,-353.7839 570.1528,-363.4728 577.1305,-364.0313"/>
</g>
<!-- user_repeat_sentence&#45;&gt;alexa_sentence_dst -->
<g id="edge20" class="edge">
<title>user_repeat_sentence&#45;&gt;alexa_sentence_dst</title>
<path fill="none" stroke="#000000" d="M631.7885,-175.292C666.0408,-192.5952 717,-223.9734 717,-244.6102 717,-572.0904 717,-572.0904 717,-572.0904 717,-596.0179 699.4768,-616.3773 680.7377,-630.8083"/>
<polygon fill="#000000" stroke="#000000" points="678.4617,-628.1342 672.3916,-636.8178 682.552,-633.8149 678.4617,-628.1342"/>
</g>
<!-- alexa_words_intro -->
<g id="node20" class="node">
<title>alexa_words_intro</title>
<ellipse fill="#add8e6" stroke="#add8e6" cx="1005" cy="-931.3107" rx="137.7717" ry="26.7407"/>
<text text-anchor="middle" x="1005" y="-935.1107" font-family="Times,serif" font-size="14.00" fill="#000000">There are %d new words</text>
<text text-anchor="middle" x="1005" y="-920.1107" font-family="Times,serif" font-size="14.00" fill="#000000">in this sentence</text>
</g>
<!-- user_explain&#45;&gt;alexa_words_intro -->
<g id="edge30" class="edge">
<title>user_explain&#45;&gt;alexa_words_intro</title>
<path fill="none" stroke="#000000" d="M749.1294,-165.0579C855.3488,-170.9633 1118.9352,-187.6814 1152,-209.7401 1166.6818,-219.5348 1171,-226.9611 1171,-244.6102 1171,-840.5706 1171,-840.5706 1171,-840.5706 1171,-874.0511 1144.6794,-895.2557 1112.9995,-908.6522"/>
<polygon fill="#000000" stroke="#000000" points="1111.5066,-905.4783 1103.4814,-912.3955 1114.0686,-911.9926 1111.5066,-905.4783"/>
</g>
<!-- sys_easy -->
<g id="node19" class="node">
<title>sys_easy</title>
<ellipse fill="none" stroke="#000000" cx="497" cy="-42.8701" rx="105.218" ry="26.7407"/>
<text text-anchor="middle" x="497" y="-46.6701" font-family="Times,serif" font-size="14.00" fill="#000000">Add all new words</text>
<text text-anchor="middle" x="497" y="-31.6701" font-family="Times,serif" font-size="14.00" fill="#000000">to known words</text>
</g>
<!-- user_easy&#45;&gt;sys_easy -->
<g id="edge26" class="edge">
<title>user_easy&#45;&gt;sys_easy</title>
<path fill="none" stroke="#000000" d="M508.8737,-144.5344C506.8885,-127.5365 503.865,-101.6489 501.3659,-80.2514"/>
<polygon fill="#000000" stroke="#000000" points="504.8245,-79.6929 500.188,-70.1665 497.8718,-80.505 504.8245,-79.6929"/>
</g>
<!-- sys_easy&#45;&gt;sys_new_sentence -->
<g id="edge27" class="edge">
<title>sys_easy&#45;&gt;sys_new_sentence</title>
<path fill="none" stroke="#000000" d="M417.3412,-60.6421C396.625,-70.2155 380,-84.8678 380,-107.2401 380,-749.8305 380,-749.8305 380,-749.8305 380,-781.764 403.1727,-802.4702 432.7015,-815.8925"/>
<polygon fill="#000000" stroke="#000000" points="431.4764,-819.1742 442.051,-819.8285 434.1925,-812.7226 431.4764,-819.1742"/>
</g>
<!-- sys_new_word -->
<g id="node21" class="node">
<title>sys_new_word</title>
<ellipse fill="none" stroke="#000000" cx="1005" cy="-749.8305" rx="136.4432" ry="26.7407"/>
<text text-anchor="middle" x="1005" y="-753.6305" font-family="Times,serif" font-size="14.00" fill="#000000">Get next new word</text>
<text text-anchor="middle" x="1005" y="-738.6305" font-family="Times,serif" font-size="14.00" fill="#000000">in the current sentence?</text>
</g>
<!-- alexa_words_intro&#45;&gt;sys_new_word -->
<g id="edge31" class="edge">
<title>alexa_words_intro&#45;&gt;sys_new_word</title>
<path fill="none" stroke="#000000" d="M1005,-904.1413C1005,-873.0464 1005,-821.9365 1005,-787.128"/>
<polygon fill="#000000" stroke="#000000" points="1008.5001,-786.8888 1005,-776.8889 1001.5001,-786.8889 1008.5001,-786.8888"/>
</g>
<!-- sys_new_word&#45;&gt;alexa_sentence_dst -->
<g id="edge32" class="edge">
<title>sys_new_word&#45;&gt;alexa_sentence_dst</title>
<path fill="none" stroke="#000000" d="M922.4136,-728.3154C857.2747,-711.3456 767.4757,-687.9515 706.1055,-671.9636"/>
<polygon fill="#000000" stroke="#000000" points="706.6889,-668.4988 696.1296,-669.3647 704.9242,-675.2727 706.6889,-668.4988"/>
<text text-anchor="middle" x="856.5" y="-693.7605" font-family="Times,serif" font-size="14.00" fill="#000000">FALSE</text>
</g>
<!-- alexa_new_word -->
<g id="node23" class="node">
<title>alexa_new_word</title>
<ellipse fill="#add8e6" stroke="#add8e6" cx="1010" cy="-572.0904" rx="101.6471" ry="26.7407"/>
<text text-anchor="middle" x="1010" y="-575.8904" font-family="Times,serif" font-size="14.00" fill="#000000">(Word in German,</text>
<text text-anchor="middle" x="1010" y="-560.8904" font-family="Times,serif" font-size="14.00" fill="#000000">Word in English)</text>
</g>
<!-- sys_new_word&#45;&gt;alexa_new_word -->
<g id="edge33" class="edge">
<title>sys_new_word&#45;&gt;alexa_new_word</title>
<path fill="none" stroke="#000000" d="M1005.7594,-722.8356C1006.6099,-692.6033 1007.9938,-643.4054 1008.9481,-609.4817"/>
<polygon fill="#000000" stroke="#000000" points="1012.459,-609.1421 1009.2417,-599.0476 1005.4618,-608.9452 1012.459,-609.1421"/>
<text text-anchor="middle" x="1029.5" y="-650.2605" font-family="Times,serif" font-size="14.00" fill="#000000">TRUE</text>
</g>
<!-- sys_add_word -->
<g id="node22" class="node">
<title>sys_add_word</title>
<ellipse fill="none" stroke="#000000" cx="1050" cy="-244.6102" rx="92.7622" ry="26.7407"/>
<text text-anchor="middle" x="1050" y="-248.4102" font-family="Times,serif" font-size="14.00" fill="#000000">Add word</text>
<text text-anchor="middle" x="1050" y="-233.4102" font-family="Times,serif" font-size="14.00" fill="#000000">to known words</text>
</g>
<!-- sys_add_word&#45;&gt;sys_new_word -->
<g id="edge40" class="edge">
<title>sys_add_word&#45;&gt;sys_new_word</title>
<path fill="none" stroke="#000000" d="M1095.4609,-268.0815C1118.6392,-283.5957 1142,-306.4104 1142,-335.3503 1142,-653.9605 1142,-653.9605 1142,-653.9605 1142,-685.5255 1117.2851,-707.5719 1088.8499,-722.4912"/>
<polygon fill="#000000" stroke="#000000" points="1086.9393,-719.5306 1079.5136,-727.0877 1090.0312,-725.8107 1086.9393,-719.5306"/>
</g>
<!-- user_yes -->
<g id="node24" class="node">
<title>user_yes</title>
<ellipse fill="#ffff00" stroke="#ffff00" cx="1096" cy="-417.2203" rx="27" ry="18"/>
<text text-anchor="middle" x="1096" y="-413.5203" font-family="Times,serif" font-size="14.00" fill="#000000">yes</text>
</g>
<!-- alexa_new_word&#45;&gt;user_yes -->
<g id="edge38" class="edge">
<title>alexa_new_word&#45;&gt;user_yes</title>
<path fill="none" stroke="#000000" d="M1024.7839,-545.4673C1040.6621,-516.8736 1065.7303,-471.7304 1081.4985,-443.3348"/>
<polygon fill="#000000" stroke="#000000" points="1084.6678,-444.8369 1086.4627,-434.3952 1078.5481,-441.4385 1084.6678,-444.8369"/>
</g>
<!-- user_no -->
<g id="node25" class="node">
<title>user_no</title>
<ellipse fill="#ffff00" stroke="#ffff00" cx="924" cy="-417.2203" rx="27" ry="18"/>
<text text-anchor="middle" x="924" y="-413.5203" font-family="Times,serif" font-size="14.00" fill="#000000">no</text>
</g>
<!-- alexa_new_word&#45;&gt;user_no -->
<g id="edge41" class="edge">
<title>alexa_new_word&#45;&gt;user_no</title>
<path fill="none" stroke="#000000" d="M995.2161,-545.4673C979.3379,-516.8736 954.2697,-471.7304 938.5015,-443.3348"/>
<polygon fill="#000000" stroke="#000000" points="941.4519,-441.4385 933.5373,-434.3952 935.3322,-444.8369 941.4519,-441.4385"/>
</g>
<!-- user_sentence -->
<g id="node26" class="node">
<title>user_sentence</title>
<ellipse fill="#ffff00" stroke="#ffff00" cx="826" cy="-417.2203" rx="52.7911" ry="18"/>
<text text-anchor="middle" x="826" y="-413.5203" font-family="Times,serif" font-size="14.00" fill="#000000">sentence</text>
</g>
<!-- alexa_new_word&#45;&gt;user_sentence -->
<g id="edge36" class="edge">
<title>alexa_new_word&#45;&gt;user_sentence</title>
<path fill="none" stroke="#000000" d="M979.2025,-546.1686C944.2125,-516.7181 887.6066,-469.0737 853.877,-440.684"/>
<polygon fill="#000000" stroke="#000000" points="855.7261,-437.6656 845.8216,-433.9039 851.2185,-443.0212 855.7261,-437.6656"/>
</g>
<!-- user_repeat_word -->
<g id="node27" class="node">
<title>user_repeat_word</title>
<ellipse fill="#ffff00" stroke="#ffff00" cx="1010" cy="-417.2203" rx="40.8928" ry="18"/>
<text text-anchor="middle" x="1010" y="-413.5203" font-family="Times,serif" font-size="14.00" fill="#000000">repeat</text>
</g>
<!-- alexa_new_word&#45;&gt;user_repeat_word -->
<g id="edge34" class="edge">
<title>alexa_new_word&#45;&gt;user_repeat_word</title>
<path fill="none" stroke="#000000" d="M1004.7332,-545.1141C1002.7801,-517.1424 1002.7559,-473.6117 1004.6607,-445.255"/>
<polygon fill="#000000" stroke="#000000" points="1008.1566,-445.4465 1005.4851,-435.1941 1001.18,-444.8748 1008.1566,-445.4465"/>
</g>
<!-- user_yes&#45;&gt;sys_add_word -->
<g id="edge39" class="edge">
<title>user_yes&#45;&gt;sys_add_word</title>
<path fill="none" stroke="#000000" d="M1091.2504,-399.3982C1083.8647,-371.6839 1069.4714,-317.6747 1059.7947,-281.3637"/>
<polygon fill="#000000" stroke="#000000" points="1063.1573,-280.3894 1057.2001,-271.6279 1056.3933,-282.192 1063.1573,-280.3894"/>
</g>
<!-- user_no&#45;&gt;sys_new_word -->
<g id="edge42" class="edge">
<title>user_no&#45;&gt;sys_new_word</title>
<path fill="none" stroke="#000000" d="M911.166,-433.2774C901.177,-447.413 889,-468.9973 889,-490.2203 889,-653.9605 889,-653.9605 889,-653.9605 889,-683.0575 910.9537,-704.982 935.7598,-720.4678"/>
<polygon fill="#000000" stroke="#000000" points="934.2273,-723.6269 944.6217,-725.678 937.7751,-717.5925 934.2273,-723.6269"/>
</g>
<!-- user_sentence&#45;&gt;alexa_sentence_dst -->
<g id="edge37" class="edge">
<title>user_sentence&#45;&gt;alexa_sentence_dst</title>
<path fill="none" stroke="#000000" d="M822.4921,-435.2052C814.0242,-473.9773 788.8966,-566.1104 733,-617.9605 725.7572,-624.6789 717.1428,-630.1763 708.0919,-634.6663"/>
<polygon fill="#000000" stroke="#000000" points="706.587,-631.5057 698.9301,-638.8284 709.4823,-637.8788 706.587,-631.5057"/>
</g>
<!-- user_repeat_word&#45;&gt;alexa_new_word -->
<g id="edge35" class="edge">
<title>user_repeat_word&#45;&gt;alexa_new_word</title>
<path fill="none" stroke="#000000" d="M1014.5149,-435.1941C1016.9442,-459.489 1017.3932,-503.3923 1015.862,-534.9365"/>
<polygon fill="#000000" stroke="#000000" points="1012.3567,-534.9268 1015.2668,-545.1141 1019.3448,-535.3355 1012.3567,-534.9268"/>
</g>
</g>
</svg>
