<?xml version="1.0" encoding="UTF-8" standalone="no"?>
<!DOCTYPE svg PUBLIC "-//W3C//DTD SVG 1.1//EN"
 "http://www.w3.org/Graphics/SVG/1.1/DTD/svg11.dtd">
<!-- Generated by graphviz version 2.40.1 (20161225.0304)
 -->
<!-- Title: G Pages: 1 -->
<svg width="1176pt" height="1546pt"
 viewBox="0.00 0.00 1176.00 1546.04" xmlns="http://www.w3.org/2000/svg" xmlns:xlink="http://www.w3.org/1999/xlink">
<g id="graph0" class="graph" transform="scale(1 1) rotate(0) translate(4 1542.0408)">
<title>G</title>
<polygon fill="#ffffff" stroke="transparent" points="-4,4 -4,-1542.0408 1172,-1542.0408 1172,4 -4,4"/>
<g id="clust1" class="cluster">
<title>cluster_start</title>
<polygon fill="none" stroke="#000000" points="103,-1215.3006 103,-1530.0408 563,-1530.0408 563,-1215.3006 103,-1215.3006"/>
<text text-anchor="middle" x="333" y="-1514.8408" font-family="Times,serif" font-size="14.00" fill="#000000">start</text>
</g>
<g id="clust2" class="cluster">
<title>cluster_onboarding</title>
<polygon fill="none" stroke="#000000" points="8,-136.7401 8,-1182.3006 344,-1182.3006 344,-136.7401 8,-136.7401"/>
<text text-anchor="middle" x="176" y="-1167.1006" font-family="Times,serif" font-size="14.00" fill="#000000">onboarding context</text>
</g>
<g id="clust4" class="cluster">
<title>cluster_sentence</title>
<polygon fill="none" stroke="#000000" points="368,-8 368,-1152.2174 754,-1152.2174 754,-8 368,-8"/>
<text text-anchor="middle" x="561" y="-1137.0174" font-family="Times,serif" font-size="14.00" fill="#000000">sentences context</text>
</g>
<g id="clust10" class="cluster">
<title>cluster_words</title>
<polygon fill="none" stroke="#000000" points="762,-248.6934 762,-1028.1341 1148,-1028.1341 1148,-248.6934 762,-248.6934"/>
<text text-anchor="middle" x="955" y="-1012.9341" font-family="Times,serif" font-size="14.00" fill="#000000">words context</text>
</g>
<!-- alexa_welcome -->
<g id="node1" class="node">
<title>alexa_welcome</title>
<ellipse fill="#add8e6" stroke="#add8e6" cx="333" cy="-1472.1707" rx="222.0631" ry="26.7407"/>
<text text-anchor="middle" x="333" y="-1475.9707" font-family="Times,serif" font-size="14.00" fill="#000000">Welcome to the vocabulary trainer!</text>
<text text-anchor="middle" x="333" y="-1460.9707" font-family="Times,serif" font-size="14.00" fill="#000000">Which language do you want to practice?</text>
</g>
<!-- user_choose_lang -->
<g id="node2" class="node">
<title>user_choose_lang</title>
<ellipse fill="#ffff00" stroke="#ffff00" cx="333" cy="-1352.3006" rx="48.1917" ry="18"/>
<text text-anchor="middle" x="333" y="-1348.6006" font-family="Times,serif" font-size="14.00" fill="#000000">German</text>
</g>
<!-- alexa_welcome&#45;&gt;user_choose_lang -->
<g id="edge1" class="edge">
<title>alexa_welcome&#45;&gt;user_choose_lang</title>
<path fill="none" stroke="#000000" d="M333,-1445.2695C333,-1426.0499 333,-1400.2395 333,-1380.6908"/>
<polygon fill="#000000" stroke="#000000" points="336.5001,-1380.5562 333,-1370.5562 329.5001,-1380.5563 336.5001,-1380.5562"/>
</g>
<!-- sys_choose_lang -->
<g id="node3" class="node">
<title>sys_choose_lang</title>
<ellipse fill="none" stroke="#000000" cx="333" cy="-1241.3006" rx="136.4758" ry="18"/>
<text text-anchor="middle" x="333" y="-1237.6006" font-family="Times,serif" font-size="14.00" fill="#000000">Already practiced by user?</text>
</g>
<!-- user_choose_lang&#45;&gt;sys_choose_lang -->
<g id="edge2" class="edge">
<title>user_choose_lang&#45;&gt;sys_choose_lang</title>
<path fill="none" stroke="#000000" d="M333,-1333.9713C333,-1316.5379 333,-1290.0488 333,-1269.8496"/>
<polygon fill="#000000" stroke="#000000" points="336.5001,-1269.6572 333,-1259.6573 329.5001,-1269.6573 336.5001,-1269.6572"/>
</g>
<!-- alexa_freq_intro -->
<g id="node6" class="node">
<title>alexa_freq_intro</title>
<ellipse fill="#add8e6" stroke="#add8e6" cx="190" cy="-1103.2174" rx="146.2423" ry="48.1667"/>
<text text-anchor="middle" x="190" y="-1122.0174" font-family="Times,serif" font-size="14.00" fill="#000000">Tell me for each</text>
<text text-anchor="middle" x="190" y="-1107.0174" font-family="Times,serif" font-size="14.00" fill="#000000">of the following words</text>
<text text-anchor="middle" x="190" y="-1092.0174" font-family="Times,serif" font-size="14.00" fill="#000000">whether you understand it</text>
<text text-anchor="middle" x="190" y="-1077.0174" font-family="Times,serif" font-size="14.00" fill="#000000">or not</text>
</g>
<!-- sys_choose_lang&#45;&gt;alexa_freq_intro -->
<g id="edge3" class="edge">
<title>sys_choose_lang&#45;&gt;alexa_freq_intro</title>
<path fill="none" stroke="#000000" d="M314.3052,-1223.2487C296.5967,-1206.149 269.124,-1179.6209 244.5048,-1155.8482"/>
<polygon fill="#000000" stroke="#000000" points="246.9347,-1153.3291 237.3098,-1148.9005 242.0722,-1158.3646 246.9347,-1153.3291"/>
<text text-anchor="middle" x="318.5" y="-1194.1006" font-family="Times,serif" font-size="14.00" fill="#000000">FALSE</text>
</g>
<!-- alexa_start_sentences -->
<g id="node11" class="node">
<title>alexa_start_sentences</title>
<ellipse fill="#add8e6" stroke="#add8e6" cx="539" cy="-1103.2174" rx="149.4735" ry="18"/>
<text text-anchor="middle" x="539" y="-1099.5174" font-family="Times,serif" font-size="14.00" fill="#000000">Let&#39;s start practicing German</text>
</g>
<!-- sys_choose_lang&#45;&gt;alexa_start_sentences -->
<g id="edge12" class="edge">
<title>sys_choose_lang&#45;&gt;alexa_start_sentences</title>
<path fill="none" stroke="#000000" d="M359.5092,-1223.5314C396.3357,-1198.8463 463.0488,-1154.128 503.9502,-1126.7115"/>
<polygon fill="#000000" stroke="#000000" points="505.9085,-1129.6124 512.2663,-1121.1372 502.011,-1123.7979 505.9085,-1129.6124"/>
<text text-anchor="middle" x="426.5" y="-1194.1006" font-family="Times,serif" font-size="14.00" fill="#000000">TRUE</text>
</g>
<!-- sys_freq_word -->
<g id="node4" class="node">
<title>sys_freq_word</title>
<ellipse fill="none" stroke="#000000" cx="190" cy="-879.524" rx="128.8872" ry="26.7407"/>
<text text-anchor="middle" x="190" y="-883.324" font-family="Times,serif" font-size="14.00" fill="#000000">Get a word</text>
<text text-anchor="middle" x="190" y="-868.324" font-family="Times,serif" font-size="14.00" fill="#000000">from the frequency list</text>
</g>
<!-- alexa_freq_word -->
<g id="node7" class="node">
<title>alexa_freq_word</title>
<ellipse fill="#add8e6" stroke="#add8e6" cx="226" cy="-692.9138" rx="94.4839" ry="18"/>
<text text-anchor="middle" x="226" y="-689.2138" font-family="Times,serif" font-size="14.00" fill="#000000">(Word in German)</text>
</g>
<!-- sys_freq_word&#45;&gt;alexa_freq_word -->
<g id="edge5" class="edge">
<title>sys_freq_word&#45;&gt;alexa_freq_word</title>
<path fill="none" stroke="#000000" d="M195.2347,-852.3892C201.9857,-817.3946 213.6725,-756.8148 220.534,-721.2472"/>
<polygon fill="#000000" stroke="#000000" points="224.0401,-721.5499 222.4978,-711.068 217.1668,-720.2239 224.0401,-721.5499"/>
</g>
<!-- sys_know_word -->
<g id="node5" class="node">
<title>sys_know_word</title>
<ellipse fill="none" stroke="#000000" cx="159" cy="-374.3036" rx="123.9879" ry="26.7407"/>
<text text-anchor="middle" x="159" y="-378.1036" font-family="Times,serif" font-size="14.00" fill="#000000">Do we need</text>
<text text-anchor="middle" x="159" y="-363.1036" font-family="Times,serif" font-size="14.00" fill="#000000">to check more words?</text>
</g>
<!-- sys_know_word&#45;&gt;sys_freq_word -->
<g id="edge10" class="edge">
<title>sys_know_word&#45;&gt;sys_freq_word</title>
<path fill="none" stroke="#000000" d="M134.9222,-401.0322C123.7925,-416.1173 113,-435.9574 113,-456.1737 113,-788.7838 113,-788.7838 113,-788.7838 113,-811.5384 127.251,-831.5086 143.4912,-846.8788"/>
<polygon fill="#000000" stroke="#000000" points="141.2536,-849.5728 151.0488,-853.6105 145.9095,-844.3457 141.2536,-849.5728"/>
<text text-anchor="middle" x="134.5" y="-607.3437" font-family="Times,serif" font-size="14.00" fill="#000000">TRUE</text>
</g>
<!-- alexa_finish_onboarding -->
<g id="node8" class="node">
<title>alexa_finish_onboarding</title>
<ellipse fill="#add8e6" stroke="#add8e6" cx="176" cy="-182.2168" rx="159.6125" ry="37.4533"/>
<text text-anchor="middle" x="176" y="-193.5168" font-family="Times,serif" font-size="14.00" fill="#000000">I think you know</text>
<text text-anchor="middle" x="176" y="-178.5168" font-family="Times,serif" font-size="14.00" fill="#000000">around %d words in German.</text>
<text text-anchor="middle" x="176" y="-163.5168" font-family="Times,serif" font-size="14.00" fill="#000000">That can be improved!</text>
</g>
<!-- sys_know_word&#45;&gt;alexa_finish_onboarding -->
<g id="edge11" class="edge">
<title>sys_know_word&#45;&gt;alexa_finish_onboarding</title>
<path fill="none" stroke="#000000" d="M158.5887,-347.2332C158.4969,-319.5895 159.2584,-275.4885 164,-237.6934 164.3335,-235.0352 164.7315,-232.3159 165.1765,-229.5784"/>
<polygon fill="#000000" stroke="#000000" points="168.6343,-230.1253 166.9628,-219.6632 161.7452,-228.8842 168.6343,-230.1253"/>
<text text-anchor="middle" x="187.5" y="-279.8635" font-family="Times,serif" font-size="14.00" fill="#000000">FALSE</text>
</g>
<!-- alexa_freq_intro&#45;&gt;sys_freq_word -->
<g id="edge4" class="edge">
<title>alexa_freq_intro&#45;&gt;sys_freq_word</title>
<path fill="none" stroke="#000000" d="M190,-1054.9546C190,-1013.5126 190,-954.631 190,-916.7498"/>
<polygon fill="#000000" stroke="#000000" points="193.5001,-916.6541 190,-906.6541 186.5001,-916.6542 193.5001,-916.6541"/>
</g>
<!-- user_freq_yes -->
<g id="node9" class="node">
<title>user_freq_yes</title>
<ellipse fill="#ffff00" stroke="#ffff00" cx="159" cy="-529.1737" rx="27" ry="18"/>
<text text-anchor="middle" x="159" y="-525.4737" font-family="Times,serif" font-size="14.00" fill="#000000">yes</text>
</g>
<!-- alexa_freq_word&#45;&gt;user_freq_yes -->
<g id="edge6" class="edge">
<title>alexa_freq_word&#45;&gt;user_freq_yes</title>
<path fill="none" stroke="#000000" d="M218.5738,-674.7651C206.8407,-646.0907 183.9399,-590.1238 170.2024,-556.5511"/>
<polygon fill="#000000" stroke="#000000" points="173.2822,-554.8356 166.2558,-546.9059 166.8036,-557.4866 173.2822,-554.8356"/>
</g>
<!-- user_freq_no -->
<g id="node10" class="node">
<title>user_freq_no</title>
<ellipse fill="#ffff00" stroke="#ffff00" cx="231" cy="-529.1737" rx="27" ry="18"/>
<text text-anchor="middle" x="231" y="-525.4737" font-family="Times,serif" font-size="14.00" fill="#000000">no</text>
</g>
<!-- alexa_freq_word&#45;&gt;user_freq_no -->
<g id="edge7" class="edge">
<title>alexa_freq_word&#45;&gt;user_freq_no</title>
<path fill="none" stroke="#000000" d="M226.5542,-674.7651C227.4214,-646.3645 229.1062,-591.1904 230.1344,-557.5191"/>
<polygon fill="#000000" stroke="#000000" points="233.6364,-557.5058 230.4433,-547.4036 226.6396,-557.2921 233.6364,-557.5058"/>
</g>
<!-- alexa_finish_onboarding&#45;&gt;alexa_start_sentences -->
<g id="edge13" class="edge">
<title>alexa_finish_onboarding&#45;&gt;alexa_start_sentences</title>
<path fill="none" stroke="#000000" d="M209.6167,-218.8714C236.5629,-250.4873 272.9181,-298.636 292,-347.4335 337.6424,-464.1534 315.2353,-792.2574 367,-906.394 399.9668,-979.0828 468.8231,-1044.797 508.6924,-1078.8092"/>
<polygon fill="#000000" stroke="#000000" points="506.5941,-1081.6178 516.4987,-1085.3794 511.1016,-1076.2622 506.5941,-1081.6178"/>
</g>
<!-- user_freq_yes&#45;&gt;sys_know_word -->
<g id="edge8" class="edge">
<title>user_freq_yes&#45;&gt;sys_know_word</title>
<path fill="none" stroke="#000000" d="M159,-511.105C159,-486.803 159,-443.0048 159,-411.5052"/>
<polygon fill="#000000" stroke="#000000" points="162.5001,-411.3401 159,-401.3401 155.5001,-411.3401 162.5001,-411.3401"/>
</g>
<!-- user_freq_no&#45;&gt;sys_know_word -->
<g id="edge9" class="edge">
<title>user_freq_no&#45;&gt;sys_know_word</title>
<path fill="none" stroke="#000000" d="M222.2626,-512.0248C219.2767,-506.0789 215.9479,-499.3546 213,-493.1737 199.8786,-465.6619 185.6423,-434.2541 175.0828,-410.6344"/>
<polygon fill="#000000" stroke="#000000" points="178.2099,-409.053 170.9402,-401.3457 171.8169,-411.9043 178.2099,-409.053"/>
</g>
<!-- sys_new_sentence -->
<g id="node12" class="node">
<title>sys_new_sentence</title>
<ellipse fill="none" stroke="#000000" cx="553" cy="-879.524" rx="176.5537" ry="26.7407"/>
<text text-anchor="middle" x="553" y="-883.324" font-family="Times,serif" font-size="14.00" fill="#000000">Get a new random sentence pair</text>
<text text-anchor="middle" x="553" y="-868.324" font-family="Times,serif" font-size="14.00" fill="#000000">with X new words</text>
</g>
<!-- alexa_start_sentences&#45;&gt;sys_new_sentence -->
<g id="edge14" class="edge">
<title>alexa_start_sentences&#45;&gt;sys_new_sentence</title>
<path fill="none" stroke="#000000" d="M540.1457,-1084.9116C542.4394,-1048.2627 547.6352,-965.2429 550.6721,-916.7189"/>
<polygon fill="#000000" stroke="#000000" points="554.1722,-916.8258 551.3038,-906.6267 547.1859,-916.3885 554.1722,-916.8258"/>
</g>
<!-- alexa_sentence_dst -->
<g id="node13" class="node">
<title>alexa_sentence_dst</title>
<ellipse fill="#add8e6" stroke="#add8e6" cx="634" cy="-692.9138" rx="112.3801" ry="18"/>
<text text-anchor="middle" x="634" y="-689.2138" font-family="Times,serif" font-size="14.00" fill="#000000">(Sentence in German)</text>
</g>
<!-- sys_new_sentence&#45;&gt;alexa_sentence_dst -->
<g id="edge15" class="edge">
<title>sys_new_sentence&#45;&gt;alexa_sentence_dst</title>
<path fill="none" stroke="#000000" d="M564.7781,-852.3892C580.0988,-817.0929 606.7173,-755.7684 622.0984,-720.3329"/>
<polygon fill="#000000" stroke="#000000" points="625.3488,-721.6347 626.12,-711.068 618.9276,-718.8475 625.3488,-721.6347"/>
</g>
<!-- user_next -->
<g id="node15" class="node">
<title>user_next</title>
<ellipse fill="#ffff00" stroke="#ffff00" cx="427" cy="-182.2168" rx="31.3957" ry="18"/>
<text text-anchor="middle" x="427" y="-178.5168" font-family="Times,serif" font-size="14.00" fill="#000000">next</text>
</g>
<!-- alexa_sentence_dst&#45;&gt;user_next -->
<g id="edge22" class="edge">
<title>alexa_sentence_dst&#45;&gt;user_next</title>
<path fill="none" stroke="#000000" d="M563.9765,-678.7115C517.5712,-668.1961 461.8838,-653.1138 443,-637.9138 432.1727,-629.1986 427,-624.9428 427,-611.0437 427,-611.0437 427,-611.0437 427,-283.5635 427,-258.9547 427,-230.9846 427,-210.6716"/>
<polygon fill="#000000" stroke="#000000" points="430.5001,-210.5253 427,-200.5253 423.5001,-210.5253 430.5001,-210.5253"/>
</g>
<!-- user_translate -->
<g id="node16" class="node">
<title>user_translate</title>
<ellipse fill="#ffff00" stroke="#ffff00" cx="576" cy="-529.1737" rx="52.7911" ry="18"/>
<text text-anchor="middle" x="576" y="-525.4737" font-family="Times,serif" font-size="14.00" fill="#000000">translate</text>
</g>
<!-- alexa_sentence_dst&#45;&gt;user_translate -->
<g id="edge16" class="edge">
<title>alexa_sentence_dst&#45;&gt;user_translate</title>
<path fill="none" stroke="#000000" d="M627.5714,-674.7651C617.4678,-646.2416 597.7982,-590.7122 585.8861,-557.083"/>
<polygon fill="#000000" stroke="#000000" points="589.0955,-555.6611 582.4574,-547.4036 582.4973,-557.9984 589.0955,-555.6611"/>
</g>
<!-- user_repeat_sentence -->
<g id="node17" class="node">
<title>user_repeat_sentence</title>
<ellipse fill="#ffff00" stroke="#ffff00" cx="599" cy="-182.2168" rx="40.8928" ry="18"/>
<text text-anchor="middle" x="599" y="-178.5168" font-family="Times,serif" font-size="14.00" fill="#000000">repeat</text>
</g>
<!-- alexa_sentence_dst&#45;&gt;user_repeat_sentence -->
<g id="edge19" class="edge">
<title>alexa_sentence_dst&#45;&gt;user_repeat_sentence</title>
<path fill="none" stroke="#000000" d="M655.4802,-675.1709C673.5352,-660.6535 696,-638.1358 696,-611.0437 696,-611.0437 696,-611.0437 696,-283.5635 696,-272.9163 650.7436,-232.9134 621.8837,-206.4634"/>
<polygon fill="#000000" stroke="#000000" points="623.9518,-203.6092 614.2298,-199.3981 619.2038,-208.7528 623.9518,-203.6092"/>
</g>
<!-- user_explain -->
<g id="node18" class="node">
<title>user_explain</title>
<ellipse fill="#ffff00" stroke="#ffff00" cx="702" cy="-182.2168" rx="44.393" ry="18"/>
<text text-anchor="middle" x="702" y="-178.5168" font-family="Times,serif" font-size="14.00" fill="#000000">explain</text>
</g>
<!-- alexa_sentence_dst&#45;&gt;user_explain -->
<g id="edge29" class="edge">
<title>alexa_sentence_dst&#45;&gt;user_explain</title>
<path fill="none" stroke="#000000" d="M673.3847,-675.8991C697.9785,-662.3364 725,-640.6894 725,-611.0437 725,-611.0437 725,-611.0437 725,-283.5635 725,-258.2126 718.0713,-230.1596 711.8197,-210.0074"/>
<polygon fill="#000000" stroke="#000000" points="715.0679,-208.6772 708.6526,-200.2455 708.4095,-210.8375 715.0679,-208.6772"/>
</g>
<!-- user_easy -->
<g id="node19" class="node">
<title>user_easy</title>
<ellipse fill="#ffff00" stroke="#ffff00" cx="508" cy="-182.2168" rx="31.6951" ry="18"/>
<text text-anchor="middle" x="508" y="-178.5168" font-family="Times,serif" font-size="14.00" fill="#000000">easy</text>
</g>
<!-- alexa_sentence_dst&#45;&gt;user_easy -->
<g id="edge25" class="edge">
<title>alexa_sentence_dst&#45;&gt;user_easy</title>
<path fill="none" stroke="#000000" d="M570.951,-677.9216C516.6629,-663.1197 447,-638.7315 447,-611.0437 447,-611.0437 447,-611.0437 447,-283.5635 447,-253.2405 467.2933,-224.1813 484.4703,-205.0157"/>
<polygon fill="#000000" stroke="#000000" points="487.0568,-207.3742 491.3315,-197.6799 481.9444,-202.5926 487.0568,-207.3742"/>
</g>
<!-- alexa_sentence_src -->
<g id="node14" class="node">
<title>alexa_sentence_src</title>
<ellipse fill="#add8e6" stroke="#add8e6" cx="576" cy="-374.3036" rx="110.4804" ry="18"/>
<text text-anchor="middle" x="576" y="-370.6036" font-family="Times,serif" font-size="14.00" fill="#000000">(Sentence in English)</text>
</g>
<!-- alexa_sentence_src&#45;&gt;user_next -->
<g id="edge23" class="edge">
<title>alexa_sentence_src&#45;&gt;user_next</title>
<path fill="none" stroke="#000000" d="M561.9824,-356.2325C535.1769,-321.6756 476.6173,-246.182 446.2,-206.9689"/>
<polygon fill="#000000" stroke="#000000" points="448.7021,-204.484 439.8074,-198.7277 443.171,-208.7744 448.7021,-204.484"/>
</g>
<!-- alexa_sentence_src&#45;&gt;user_translate -->
<g id="edge17" class="edge">
<title>alexa_sentence_src&#45;&gt;user_translate</title>
<path fill="none" stroke="#000000" d="M580.5604,-392.7372C583.1827,-419.5005 583.4496,-469.3475 581.3612,-500.8107"/>
<polygon fill="#000000" stroke="#000000" points="577.8462,-500.8542 580.5243,-511.105 584.8232,-501.4215 577.8462,-500.8542"/>
</g>
<!-- alexa_sentence_src&#45;&gt;user_repeat_sentence -->
<g id="edge20" class="edge">
<title>alexa_sentence_src&#45;&gt;user_repeat_sentence</title>
<path fill="none" stroke="#000000" d="M578.1638,-356.2325C582.1792,-322.6971 590.8108,-250.6094 595.6087,-210.5393"/>
<polygon fill="#000000" stroke="#000000" points="599.1114,-210.725 596.8252,-200.3798 592.1611,-209.8927 599.1114,-210.725"/>
</g>
<!-- alexa_sentence_src&#45;&gt;user_explain -->
<g id="edge30" class="edge">
<title>alexa_sentence_src&#45;&gt;user_explain</title>
<path fill="none" stroke="#000000" d="M587.8538,-356.2325C610.2466,-322.0947 658.8444,-248.0075 684.8174,-208.4117"/>
<polygon fill="#000000" stroke="#000000" points="687.8936,-210.1032 690.4519,-199.8218 682.0405,-206.2637 687.8936,-210.1032"/>
</g>
<!-- alexa_sentence_src&#45;&gt;user_easy -->
<g id="edge26" class="edge">
<title>alexa_sentence_src&#45;&gt;user_easy</title>
<path fill="none" stroke="#000000" d="M569.6027,-356.2325C557.6499,-322.4681 531.8624,-249.6234 517.7375,-209.7232"/>
<polygon fill="#000000" stroke="#000000" points="520.9673,-208.3586 514.3307,-200.0999 514.3686,-210.6947 520.9673,-208.3586"/>
</g>
<!-- user_next&#45;&gt;sys_new_sentence -->
<g id="edge24" class="edge">
<title>user_next&#45;&gt;sys_new_sentence</title>
<path fill="none" stroke="#000000" d="M421.3223,-199.9489C415.4094,-220.0175 407,-253.7926 407,-283.5635 407,-788.7838 407,-788.7838 407,-788.7838 407,-818.0098 428.3649,-838.1542 454.749,-851.8883"/>
<polygon fill="#000000" stroke="#000000" points="453.3399,-855.0946 463.8655,-856.304 456.3914,-848.7948 453.3399,-855.0946"/>
</g>
<!-- user_translate&#45;&gt;alexa_sentence_src -->
<g id="edge18" class="edge">
<title>user_translate&#45;&gt;alexa_sentence_src</title>
<path fill="none" stroke="#000000" d="M571.4757,-511.105C568.8319,-484.5533 568.5434,-434.7286 570.6103,-403.0984"/>
<polygon fill="#000000" stroke="#000000" points="574.1305,-402.9846 571.4396,-392.7372 567.1528,-402.4261 574.1305,-402.9846"/>
</g>
<!-- user_repeat_sentence&#45;&gt;alexa_sentence_dst -->
<g id="edge21" class="edge">
<title>user_repeat_sentence&#45;&gt;alexa_sentence_dst</title>
<path fill="none" stroke="#000000" d="M622.6291,-197.1364C656.529,-222.2882 714,-271.5652 714,-283.5635 714,-611.0437 714,-611.0437 714,-611.0437 714,-634.9713 696.4768,-655.3306 677.7377,-669.7616"/>
<polygon fill="#000000" stroke="#000000" points="675.4617,-667.0875 669.3916,-675.7711 679.552,-672.7682 675.4617,-667.0875"/>
</g>
<!-- alexa_words_intro -->
<g id="node21" class="node">
<title>alexa_words_intro</title>
<ellipse fill="#add8e6" stroke="#add8e6" cx="1002" cy="-970.2641" rx="137.7717" ry="26.7407"/>
<text text-anchor="middle" x="1002" y="-974.0641" font-family="Times,serif" font-size="14.00" fill="#000000">There are %d new words</text>
<text text-anchor="middle" x="1002" y="-959.0641" font-family="Times,serif" font-size="14.00" fill="#000000">in this sentence</text>
</g>
<!-- user_explain&#45;&gt;alexa_words_intro -->
<g id="edge31" class="edge">
<title>user_explain&#45;&gt;alexa_words_intro</title>
<path fill="none" stroke="#000000" d="M746.0812,-183.8508C845.6628,-188.3099 1084.3601,-203.5381 1149,-248.6934 1163.4684,-258.8006 1168,-265.9144 1168,-283.5635 1168,-879.524 1168,-879.524 1168,-879.524 1168,-913.0044 1141.6794,-934.209 1109.9995,-947.6055"/>
<polygon fill="#000000" stroke="#000000" points="1108.5066,-944.4316 1100.4814,-951.3488 1111.0686,-950.946 1108.5066,-944.4316"/>
</g>
<!-- sys_easy -->
<g id="node20" class="node">
<title>sys_easy</title>
<ellipse fill="none" stroke="#000000" cx="494" cy="-42.8701" rx="105.218" ry="26.7407"/>
<text text-anchor="middle" x="494" y="-46.6701" font-family="Times,serif" font-size="14.00" fill="#000000">Add all new words</text>
<text text-anchor="middle" x="494" y="-31.6701" font-family="Times,serif" font-size="14.00" fill="#000000">to known words</text>
</g>
<!-- user_easy&#45;&gt;sys_easy -->
<g id="edge27" class="edge">
<title>user_easy&#45;&gt;sys_easy</title>
<path fill="none" stroke="#000000" d="M506.1697,-163.9996C504.0432,-142.8332 500.4784,-107.3516 497.7551,-80.2454"/>
<polygon fill="#000000" stroke="#000000" points="501.2026,-79.5467 496.7204,-69.9467 494.2376,-80.2465 501.2026,-79.5467"/>
</g>
<!-- sys_easy&#45;&gt;sys_new_sentence -->
<g id="edge28" class="edge">
<title>sys_easy&#45;&gt;sys_new_sentence</title>
<path fill="none" stroke="#000000" d="M414.3412,-60.6421C393.625,-70.2155 377,-84.8678 377,-107.2401 377,-788.7838 377,-788.7838 377,-788.7838 377,-820.7173 400.1727,-841.4236 429.7015,-854.8458"/>
<polygon fill="#000000" stroke="#000000" points="428.4764,-858.1275 439.051,-858.7818 431.1925,-851.6759 428.4764,-858.1275"/>
</g>
<!-- sys_new_word -->
<g id="node22" class="node">
<title>sys_new_word</title>
<ellipse fill="none" stroke="#000000" cx="1002" cy="-788.7838" rx="136.4432" ry="26.7407"/>
<text text-anchor="middle" x="1002" y="-792.5838" font-family="Times,serif" font-size="14.00" fill="#000000">Get next new word</text>
<text text-anchor="middle" x="1002" y="-777.5838" font-family="Times,serif" font-size="14.00" fill="#000000">in the current sentence?</text>
</g>
<!-- alexa_words_intro&#45;&gt;sys_new_word -->
<g id="edge32" class="edge">
<title>alexa_words_intro&#45;&gt;sys_new_word</title>
<path fill="none" stroke="#000000" d="M1002,-943.0946C1002,-911.9998 1002,-860.8898 1002,-826.0813"/>
<polygon fill="#000000" stroke="#000000" points="1005.5001,-825.8422 1002,-815.8422 998.5001,-825.8422 1005.5001,-825.8422"/>
</g>
<!-- sys_new_word&#45;&gt;alexa_sentence_dst -->
<g id="edge33" class="edge">
<title>sys_new_word&#45;&gt;alexa_sentence_dst</title>
<path fill="none" stroke="#000000" d="M919.4136,-767.2687C854.2747,-750.299 764.4757,-726.9049 703.1055,-710.9169"/>
<polygon fill="#000000" stroke="#000000" points="703.6889,-707.4521 693.1296,-708.318 701.9242,-714.226 703.6889,-707.4521"/>
<text text-anchor="middle" x="853.5" y="-732.7138" font-family="Times,serif" font-size="14.00" fill="#000000">FALSE</text>
</g>
<!-- alexa_new_word -->
<g id="node24" class="node">
<title>alexa_new_word</title>
<ellipse fill="#add8e6" stroke="#add8e6" cx="1007" cy="-611.0437" rx="101.6471" ry="26.7407"/>
<text text-anchor="middle" x="1007" y="-614.8437" font-family="Times,serif" font-size="14.00" fill="#000000">(Word in German,</text>
<text text-anchor="middle" x="1007" y="-599.8437" font-family="Times,serif" font-size="14.00" fill="#000000">Word in English)</text>
</g>
<!-- sys_new_word&#45;&gt;alexa_new_word -->
<g id="edge34" class="edge">
<title>sys_new_word&#45;&gt;alexa_new_word</title>
<path fill="none" stroke="#000000" d="M1002.7594,-761.7889C1003.6099,-731.5566 1004.9938,-682.3587 1005.9481,-648.435"/>
<polygon fill="#000000" stroke="#000000" points="1009.459,-648.0954 1006.2417,-638.0009 1002.4618,-647.8985 1009.459,-648.0954"/>
<text text-anchor="middle" x="1026.5" y="-689.2138" font-family="Times,serif" font-size="14.00" fill="#000000">TRUE</text>
</g>
<!-- sys_add_word -->
<g id="node23" class="node">
<title>sys_add_word</title>
<ellipse fill="none" stroke="#000000" cx="1047" cy="-283.5635" rx="92.7622" ry="26.7407"/>
<text text-anchor="middle" x="1047" y="-287.3635" font-family="Times,serif" font-size="14.00" fill="#000000">Add word</text>
<text text-anchor="middle" x="1047" y="-272.3635" font-family="Times,serif" font-size="14.00" fill="#000000">to known words</text>
</g>
<!-- sys_add_word&#45;&gt;sys_new_word -->
<g id="edge41" class="edge">
<title>sys_add_word&#45;&gt;sys_new_word</title>
<path fill="none" stroke="#000000" d="M1092.4609,-307.0348C1115.6392,-322.549 1139,-345.3637 1139,-374.3036 1139,-692.9138 1139,-692.9138 1139,-692.9138 1139,-724.4788 1114.2851,-746.5252 1085.8499,-761.4445"/>
<polygon fill="#000000" stroke="#000000" points="1083.9393,-758.4839 1076.5136,-766.041 1087.0312,-764.7641 1083.9393,-758.4839"/>
</g>
<!-- user_yes -->
<g id="node25" class="node">
<title>user_yes</title>
<ellipse fill="#ffff00" stroke="#ffff00" cx="1093" cy="-456.1737" rx="27" ry="18"/>
<text text-anchor="middle" x="1093" y="-452.4737" font-family="Times,serif" font-size="14.00" fill="#000000">yes</text>
</g>
<!-- alexa_new_word&#45;&gt;user_yes -->
<g id="edge39" class="edge">
<title>alexa_new_word&#45;&gt;user_yes</title>
<path fill="none" stroke="#000000" d="M1021.7839,-584.4206C1037.6621,-555.8269 1062.7303,-510.6837 1078.4985,-482.2882"/>
<polygon fill="#000000" stroke="#000000" points="1081.6678,-483.7902 1083.4627,-473.3485 1075.5481,-480.3918 1081.6678,-483.7902"/>
</g>
<!-- user_no -->
<g id="node26" class="node">
<title>user_no</title>
<ellipse fill="#ffff00" stroke="#ffff00" cx="921" cy="-456.1737" rx="27" ry="18"/>
<text text-anchor="middle" x="921" y="-452.4737" font-family="Times,serif" font-size="14.00" fill="#000000">no</text>
</g>
<!-- alexa_new_word&#45;&gt;user_no -->
<g id="edge42" class="edge">
<title>alexa_new_word&#45;&gt;user_no</title>
<path fill="none" stroke="#000000" d="M992.2161,-584.4206C976.3379,-555.8269 951.2697,-510.6837 935.5015,-482.2882"/>
<polygon fill="#000000" stroke="#000000" points="938.4519,-480.3918 930.5373,-473.3485 932.3322,-483.7902 938.4519,-480.3918"/>
</g>
<!-- user_sentence -->
<g id="node27" class="node">
<title>user_sentence</title>
<ellipse fill="#ffff00" stroke="#ffff00" cx="823" cy="-456.1737" rx="52.7911" ry="18"/>
<text text-anchor="middle" x="823" y="-452.4737" font-family="Times,serif" font-size="14.00" fill="#000000">sentence</text>
</g>
<!-- alexa_new_word&#45;&gt;user_sentence -->
<g id="edge37" class="edge">
<title>alexa_new_word&#45;&gt;user_sentence</title>
<path fill="none" stroke="#000000" d="M976.2025,-585.122C941.2125,-555.6714 884.6066,-508.027 850.877,-479.6373"/>
<polygon fill="#000000" stroke="#000000" points="852.7261,-476.619 842.8216,-472.8572 848.2185,-481.9745 852.7261,-476.619"/>
</g>
<!-- user_repeat_word -->
<g id="node28" class="node">
<title>user_repeat_word</title>
<ellipse fill="#ffff00" stroke="#ffff00" cx="1007" cy="-456.1737" rx="40.8928" ry="18"/>
<text text-anchor="middle" x="1007" y="-452.4737" font-family="Times,serif" font-size="14.00" fill="#000000">repeat</text>
</g>
<!-- alexa_new_word&#45;&gt;user_repeat_word -->
<g id="edge35" class="edge">
<title>alexa_new_word&#45;&gt;user_repeat_word</title>
<path fill="none" stroke="#000000" d="M1001.7332,-584.0674C999.7801,-556.0957 999.7559,-512.565 1001.6607,-484.2083"/>
<polygon fill="#000000" stroke="#000000" points="1005.1566,-484.3999 1002.4851,-474.1474 998.18,-483.8281 1005.1566,-484.3999"/>
</g>
<!-- user_yes&#45;&gt;sys_add_word -->
<g id="edge40" class="edge">
<title>user_yes&#45;&gt;sys_add_word</title>
<path fill="none" stroke="#000000" d="M1088.2504,-438.3515C1080.8647,-410.6372 1066.4714,-356.6281 1056.7947,-320.317"/>
<polygon fill="#000000" stroke="#000000" points="1060.1573,-319.3427 1054.2001,-310.5813 1053.3933,-321.1453 1060.1573,-319.3427"/>
</g>
<!-- user_no&#45;&gt;sys_new_word -->
<g id="edge43" class="edge">
<title>user_no&#45;&gt;sys_new_word</title>
<path fill="none" stroke="#000000" d="M908.166,-472.2307C898.177,-486.3663 886,-507.9506 886,-529.1737 886,-692.9138 886,-692.9138 886,-692.9138 886,-722.0108 907.9537,-743.9353 932.7598,-759.4211"/>
<polygon fill="#000000" stroke="#000000" points="931.2273,-762.5802 941.6217,-764.6313 934.7751,-756.5458 931.2273,-762.5802"/>
</g>
<!-- user_sentence&#45;&gt;alexa_sentence_dst -->
<g id="edge38" class="edge">
<title>user_sentence&#45;&gt;alexa_sentence_dst</title>
<path fill="none" stroke="#000000" d="M819.4921,-474.1586C811.0242,-512.9307 785.8966,-605.0637 730,-656.9138 722.7572,-663.6322 714.1428,-669.1296 705.0919,-673.6196"/>
<polygon fill="#000000" stroke="#000000" points="703.587,-670.459 695.9301,-677.7818 706.4823,-676.8322 703.587,-670.459"/>
</g>
<!-- user_repeat_word&#45;&gt;alexa_new_word -->
<g id="edge36" class="edge">
<title>user_repeat_word&#45;&gt;alexa_new_word</title>
<path fill="none" stroke="#000000" d="M1011.5149,-474.1474C1013.9442,-498.4423 1014.3932,-542.3457 1012.862,-573.8898"/>
<polygon fill="#000000" stroke="#000000" points="1009.3567,-573.8801 1012.2668,-584.0674 1016.3448,-574.2888 1009.3567,-573.8801"/>
</g>
</g>
</svg>
